<svg width="251" height="61" viewBox="0 0 251 61" fill="none" xmlns="http://www.w3.org/2000/svg">
<path d="M25.573 42.862H21.289V55H18.412V42.862H14.107V40.3H25.573V42.862ZM27.0715 40.3H35.7865V42.862H29.9485V46.285H35.2615V48.847H29.9485V52.438H35.8915V55H27.0715V40.3ZM45.7292 42.862H42.6002C42.5442 44.192 42.4812 45.403 42.4112 46.495C42.3412 47.587 42.2432 48.574 42.1172 49.456C42.0052 50.324 41.8512 51.094 41.6552 51.766C41.4592 52.438 41.2072 53.019 40.8992 53.509C40.7032 53.831 40.4792 54.097 40.2272 54.307C39.9892 54.517 39.7372 54.685 39.4712 54.811C39.2052 54.937 38.9392 55.021 38.6732 55.063C38.4212 55.119 38.1832 55.147 37.9592 55.147C37.6372 55.147 37.3642 55.119 37.1402 55.063C36.9302 55.021 36.7202 54.951 36.5102 54.853L36.8252 52.375C36.9092 52.403 36.9932 52.424 37.0772 52.438C37.1612 52.452 37.2452 52.459 37.3292 52.459C37.5532 52.459 37.7702 52.403 37.9802 52.291C38.2042 52.179 38.3932 51.99 38.5472 51.724C38.7572 51.416 38.9392 50.968 39.0932 50.38C39.2472 49.778 39.3802 49.015 39.4922 48.091C39.6182 47.167 39.7162 46.068 39.7862 44.794C39.8562 43.506 39.9052 42.008 39.9332 40.3H48.6062V55H45.7292V42.862ZM51.8202 46.012C51.8202 45.522 51.9742 45.137 52.2822 44.857C52.5902 44.563 52.9962 44.416 53.5002 44.416C54.0322 44.416 54.4522 44.563 54.7602 44.857C55.0682 45.137 55.2222 45.522 55.2222 46.012C55.2222 46.502 55.0682 46.894 54.7602 47.188C54.4522 47.482 54.0322 47.629 53.5002 47.629C52.9962 47.629 52.5902 47.482 52.2822 47.188C51.9742 46.894 51.8202 46.502 51.8202 46.012ZM51.8202 53.614C51.8202 53.124 51.9742 52.739 52.2822 52.459C52.5902 52.165 52.9962 52.018 53.5002 52.018C54.0322 52.018 54.4522 52.165 54.7602 52.459C55.0682 52.739 55.2222 53.124 55.2222 53.614C55.2222 54.104 55.0682 54.496 54.7602 54.79C54.4522 55.084 54.0322 55.231 53.5002 55.231C52.9962 55.231 52.5902 55.084 52.2822 54.79C51.9742 54.496 51.8202 54.104 51.8202 53.614ZM61.7214 46.726H65.1234V43.177H67.5804V46.726H71.0034V49.078H67.5804V52.669H65.1234V49.078H61.7214V46.726ZM74.0766 55L78.8856 43.681L79.8096 42.652L78.5496 42.862H73.1526V40.3H82.6236V41.098L76.7436 55H74.0766ZM88.5746 59.62C87.9306 58.948 87.3846 58.206 86.9366 57.394C86.4886 56.596 86.1246 55.777 85.8446 54.937C85.5786 54.083 85.3826 53.229 85.2566 52.375C85.1306 51.507 85.0676 50.681 85.0676 49.897C85.0676 49.127 85.1306 48.315 85.2566 47.461C85.3826 46.607 85.5856 45.753 85.8656 44.899C86.1456 44.031 86.5096 43.184 86.9576 42.358C87.4196 41.532 87.9796 40.762 88.6376 40.048L90.4016 41.182C89.9116 41.84 89.4986 42.526 89.1626 43.24C88.8406 43.954 88.5746 44.689 88.3646 45.445C88.1686 46.187 88.0216 46.936 87.9236 47.692C87.8396 48.448 87.7976 49.183 87.7976 49.897C87.7976 50.569 87.8466 51.283 87.9446 52.039C88.0426 52.795 88.1966 53.551 88.4066 54.307C88.6166 55.049 88.8896 55.777 89.2256 56.491C89.5616 57.205 89.9676 57.856 90.4436 58.444L88.5746 59.62ZM102.291 50.905H99.9807V55H97.4397V50.905H91.0767V49.351L97.7337 40.195H99.9807V48.721H102.291V50.905ZM97.4397 45.508L97.6287 43.744H97.5447L96.8307 45.256L94.6467 48.091L93.5967 48.889L94.9407 48.721H97.4397V45.508ZM103.538 44.899C103.538 44.185 103.643 43.527 103.853 42.925C104.077 42.323 104.392 41.812 104.798 41.392C105.218 40.958 105.722 40.622 106.31 40.384C106.912 40.132 107.598 40.006 108.368 40.006C109.95 40.006 111.189 40.482 112.085 41.434C112.995 42.372 113.45 43.744 113.45 45.55C113.45 47.174 113.24 48.581 112.82 49.771C112.414 50.947 111.861 51.934 111.161 52.732C110.475 53.516 109.677 54.118 108.767 54.538C107.857 54.958 106.898 55.21 105.89 55.294L105.302 53.152C106.072 53.054 106.758 52.865 107.36 52.585C107.962 52.305 108.48 51.962 108.914 51.556C109.348 51.136 109.698 50.667 109.964 50.149C110.244 49.617 110.44 49.05 110.552 48.448C110.216 48.812 109.852 49.064 109.46 49.204C109.082 49.344 108.571 49.414 107.927 49.414C107.395 49.414 106.863 49.323 106.331 49.141C105.813 48.959 105.344 48.686 104.924 48.322C104.518 47.944 104.182 47.475 103.916 46.915C103.664 46.341 103.538 45.669 103.538 44.899ZM106.184 44.752C106.184 45.55 106.408 46.152 106.856 46.558C107.304 46.964 107.864 47.167 108.536 47.167C109.11 47.167 109.579 47.076 109.943 46.894C110.307 46.712 110.587 46.488 110.783 46.222C110.825 45.928 110.846 45.648 110.846 45.382C110.846 44.99 110.797 44.605 110.699 44.227C110.601 43.849 110.447 43.513 110.237 43.219C110.041 42.925 109.782 42.694 109.46 42.526C109.152 42.344 108.781 42.253 108.347 42.253C107.661 42.253 107.129 42.477 106.751 42.925C106.373 43.359 106.184 43.968 106.184 44.752ZM119.128 52.879C120.052 52.879 120.759 52.655 121.249 52.207C121.739 51.759 121.984 51.143 121.984 50.359C121.984 49.519 121.697 48.903 121.123 48.511C120.549 48.119 119.73 47.923 118.666 47.923L117.007 47.986V40.3H124.231V42.862H119.359V45.697L120.22 45.613C120.906 45.641 121.522 45.767 122.068 45.991C122.628 46.215 123.104 46.53 123.496 46.936C123.888 47.328 124.189 47.811 124.399 48.385C124.609 48.945 124.714 49.575 124.714 50.275C124.714 51.101 124.574 51.829 124.294 52.459C124.014 53.089 123.622 53.614 123.118 54.034C122.628 54.454 122.047 54.769 121.375 54.979C120.703 55.189 119.968 55.294 119.17 55.294C118.54 55.294 117.938 55.238 117.364 55.126C116.804 55.028 116.328 54.888 115.936 54.706L116.671 52.438C116.993 52.578 117.343 52.69 117.721 52.774C118.113 52.844 118.582 52.879 119.128 52.879ZM128.502 40.048C129.146 40.72 129.692 41.462 130.14 42.274C130.588 43.072 130.945 43.898 131.211 44.752C131.491 45.592 131.694 46.446 131.82 47.314C131.946 48.168 132.009 48.987 132.009 49.771C132.009 50.541 131.946 51.353 131.82 52.207C131.694 53.061 131.491 53.922 131.211 54.79C130.931 55.644 130.56 56.484 130.098 57.31C129.65 58.136 129.097 58.906 128.439 59.62L126.675 58.465C127.193 57.765 127.62 57.051 127.956 56.323C128.292 55.609 128.558 54.888 128.754 54.16C128.95 53.418 129.083 52.683 129.153 51.955C129.237 51.213 129.279 50.485 129.279 49.771C129.279 49.099 129.223 48.392 129.111 47.65C129.013 46.894 128.859 46.145 128.649 45.403C128.439 44.647 128.166 43.919 127.83 43.219C127.508 42.505 127.116 41.847 126.654 41.245L128.502 40.048ZM149.504 50.443C149.504 51.129 149.385 51.766 149.147 52.354C148.923 52.942 148.601 53.453 148.181 53.887C147.761 54.321 147.25 54.664 146.648 54.916C146.06 55.168 145.409 55.294 144.695 55.294C143.967 55.294 143.295 55.182 142.679 54.958C142.077 54.72 141.552 54.37 141.104 53.908C140.656 53.446 140.306 52.865 140.054 52.165C139.802 51.465 139.676 50.653 139.676 49.729C139.676 48.343 139.872 47.09 140.264 45.97C140.67 44.85 141.209 43.877 141.881 43.051C142.567 42.211 143.358 41.539 144.254 41.035C145.164 40.517 146.123 40.174 147.131 40.006L147.74 42.169C147.04 42.281 146.396 42.498 145.808 42.82C145.22 43.142 144.695 43.527 144.233 43.975C143.785 44.423 143.4 44.927 143.078 45.487C142.77 46.033 142.553 46.6 142.427 47.188C142.707 46.838 143.071 46.544 143.519 46.306C143.967 46.054 144.527 45.928 145.199 45.928C145.829 45.928 146.41 46.026 146.942 46.222C147.474 46.418 147.929 46.712 148.307 47.104C148.685 47.482 148.979 47.951 149.189 48.511C149.399 49.071 149.504 49.715 149.504 50.443ZM146.858 50.59C146.858 49.022 146.088 48.238 144.548 48.238C143.988 48.238 143.512 48.364 143.12 48.616C142.742 48.868 142.476 49.162 142.322 49.498C142.294 49.652 142.28 49.785 142.28 49.897C142.28 50.009 142.28 50.121 142.28 50.233C142.28 50.569 142.329 50.905 142.427 51.241C142.525 51.563 142.665 51.857 142.847 52.123C143.043 52.375 143.288 52.585 143.582 52.753C143.876 52.907 144.226 52.984 144.632 52.984C145.29 52.984 145.822 52.76 146.228 52.312C146.648 51.864 146.858 51.29 146.858 50.59ZM161.419 50.443C161.419 51.129 161.3 51.766 161.062 52.354C160.838 52.942 160.516 53.453 160.096 53.887C159.676 54.321 159.165 54.664 158.563 54.916C157.975 55.168 157.324 55.294 156.61 55.294C155.882 55.294 155.21 55.182 154.594 54.958C153.992 54.72 153.467 54.37 153.019 53.908C152.571 53.446 152.221 52.865 151.969 52.165C151.717 51.465 151.591 50.653 151.591 49.729C151.591 48.343 151.787 47.09 152.179 45.97C152.585 44.85 153.124 43.877 153.796 43.051C154.482 42.211 155.273 41.539 156.169 41.035C157.079 40.517 158.038 40.174 159.046 40.006L159.655 42.169C158.955 42.281 158.311 42.498 157.723 42.82C157.135 43.142 156.61 43.527 156.148 43.975C155.7 44.423 155.315 44.927 154.993 45.487C154.685 46.033 154.468 46.6 154.342 47.188C154.622 46.838 154.986 46.544 155.434 46.306C155.882 46.054 156.442 45.928 157.114 45.928C157.744 45.928 158.325 46.026 158.857 46.222C159.389 46.418 159.844 46.712 160.222 47.104C160.6 47.482 160.894 47.951 161.104 48.511C161.314 49.071 161.419 49.715 161.419 50.443ZM158.773 50.59C158.773 49.022 158.003 48.238 156.463 48.238C155.903 48.238 155.427 48.364 155.035 48.616C154.657 48.868 154.391 49.162 154.237 49.498C154.209 49.652 154.195 49.785 154.195 49.897C154.195 50.009 154.195 50.121 154.195 50.233C154.195 50.569 154.244 50.905 154.342 51.241C154.44 51.563 154.58 51.857 154.762 52.123C154.958 52.375 155.203 52.585 155.497 52.753C155.791 52.907 156.141 52.984 156.547 52.984C157.205 52.984 157.737 52.76 158.143 52.312C158.563 51.864 158.773 51.29 158.773 50.59ZM173.334 50.443C173.334 51.129 173.215 51.766 172.977 52.354C172.753 52.942 172.431 53.453 172.011 53.887C171.591 54.321 171.08 54.664 170.478 54.916C169.89 55.168 169.239 55.294 168.525 55.294C167.797 55.294 167.125 55.182 166.509 54.958C165.907 54.72 165.382 54.37 164.934 53.908C164.486 53.446 164.136 52.865 163.884 52.165C163.632 51.465 163.506 50.653 163.506 49.729C163.506 48.343 163.702 47.09 164.094 45.97C164.5 44.85 165.039 43.877 165.711 43.051C166.397 42.211 167.188 41.539 168.084 41.035C168.994 40.517 169.953 40.174 170.961 40.006L171.57 42.169C170.87 42.281 170.226 42.498 169.638 42.82C169.05 43.142 168.525 43.527 168.063 43.975C167.615 44.423 167.23 44.927 166.908 45.487C166.6 46.033 166.383 46.6 166.257 47.188C166.537 46.838 166.901 46.544 167.349 46.306C167.797 46.054 168.357 45.928 169.029 45.928C169.659 45.928 170.24 46.026 170.772 46.222C171.304 46.418 171.759 46.712 172.137 47.104C172.515 47.482 172.809 47.951 173.019 48.511C173.229 49.071 173.334 49.715 173.334 50.443ZM170.688 50.59C170.688 49.022 169.918 48.238 168.378 48.238C167.818 48.238 167.342 48.364 166.95 48.616C166.572 48.868 166.306 49.162 166.152 49.498C166.124 49.652 166.11 49.785 166.11 49.897C166.11 50.009 166.11 50.121 166.11 50.233C166.11 50.569 166.159 50.905 166.257 51.241C166.355 51.563 166.495 51.857 166.677 52.123C166.873 52.375 167.118 52.585 167.412 52.753C167.706 52.907 168.056 52.984 168.462 52.984C169.12 52.984 169.652 52.76 170.058 52.312C170.478 51.864 170.688 51.29 170.688 50.59ZM175.463 47.755H180.734V50.17H175.463V47.755ZM182.736 47.629C182.736 45.053 183.177 43.142 184.059 41.896C184.941 40.636 186.208 40.006 187.86 40.006C189.624 40.006 190.919 40.629 191.745 41.875C192.571 43.107 192.984 45.025 192.984 47.629C192.984 50.219 192.536 52.144 191.64 53.404C190.758 54.664 189.491 55.294 187.839 55.294C186.089 55.294 184.801 54.636 183.975 53.32C183.149 51.99 182.736 50.093 182.736 47.629ZM185.466 47.629C185.466 49.337 185.648 50.66 186.012 51.598C186.39 52.522 187.006 52.984 187.86 52.984C188.686 52.984 189.288 52.557 189.666 51.703C190.058 50.849 190.254 49.491 190.254 47.629C190.254 45.935 190.072 44.626 189.708 43.702C189.344 42.778 188.721 42.316 187.839 42.316C186.999 42.316 186.39 42.75 186.012 43.618C185.648 44.486 185.466 45.823 185.466 47.629ZM195.933 52.69H198.852V44.395L199.167 42.967L198.159 44.206L196.29 45.487L195.135 43.912L199.923 40.048H201.456V52.69H204.312V55H195.933V52.69ZM206.861 47.755H212.132V50.17H206.861V47.755ZM224.214 50.443C224.214 51.129 224.095 51.766 223.857 52.354C223.633 52.942 223.311 53.453 222.891 53.887C222.471 54.321 221.96 54.664 221.358 54.916C220.77 55.168 220.119 55.294 219.405 55.294C218.677 55.294 218.005 55.182 217.389 54.958C216.787 54.72 216.262 54.37 215.814 53.908C215.366 53.446 215.016 52.865 214.764 52.165C214.512 51.465 214.386 50.653 214.386 49.729C214.386 48.343 214.582 47.09 214.974 45.97C215.38 44.85 215.919 43.877 216.591 43.051C217.277 42.211 218.068 41.539 218.964 41.035C219.874 40.517 220.833 40.174 221.841 40.006L222.45 42.169C221.75 42.281 221.106 42.498 220.518 42.82C219.93 43.142 219.405 43.527 218.943 43.975C218.495 44.423 218.11 44.927 217.788 45.487C217.48 46.033 217.263 46.6 217.137 47.188C217.417 46.838 217.781 46.544 218.229 46.306C218.677 46.054 219.237 45.928 219.909 45.928C220.539 45.928 221.12 46.026 221.652 46.222C222.184 46.418 222.639 46.712 223.017 47.104C223.395 47.482 223.689 47.951 223.899 48.511C224.109 49.071 224.214 49.715 224.214 50.443ZM221.568 50.59C221.568 49.022 220.798 48.238 219.258 48.238C218.698 48.238 218.222 48.364 217.83 48.616C217.452 48.868 217.186 49.162 217.032 49.498C217.004 49.652 216.99 49.785 216.99 49.897C216.99 50.009 216.99 50.121 216.99 50.233C216.99 50.569 217.039 50.905 217.137 51.241C217.235 51.563 217.375 51.857 217.557 52.123C217.753 52.375 217.998 52.585 218.292 52.753C218.586 52.907 218.936 52.984 219.342 52.984C220 52.984 220.532 52.76 220.938 52.312C221.358 51.864 221.568 51.29 221.568 50.59ZM236.129 50.443C236.129 51.129 236.01 51.766 235.772 52.354C235.548 52.942 235.226 53.453 234.806 53.887C234.386 54.321 233.875 54.664 233.273 54.916C232.685 55.168 232.034 55.294 231.32 55.294C230.592 55.294 229.92 55.182 229.304 54.958C228.702 54.72 228.177 54.37 227.729 53.908C227.281 53.446 226.931 52.865 226.679 52.165C226.427 51.465 226.301 50.653 226.301 49.729C226.301 48.343 226.497 47.09 226.889 45.97C227.295 44.85 227.834 43.877 228.506 43.051C229.192 42.211 229.983 41.539 230.879 41.035C231.789 40.517 232.748 40.174 233.756 40.006L234.365 42.169C233.665 42.281 233.021 42.498 232.433 42.82C231.845 43.142 231.32 43.527 230.858 43.975C230.41 44.423 230.025 44.927 229.703 45.487C229.395 46.033 229.178 46.6 229.052 47.188C229.332 46.838 229.696 46.544 230.144 46.306C230.592 46.054 231.152 45.928 231.824 45.928C232.454 45.928 233.035 46.026 233.567 46.222C234.099 46.418 234.554 46.712 234.932 47.104C235.31 47.482 235.604 47.951 235.814 48.511C236.024 49.071 236.129 49.715 236.129 50.443ZM233.483 50.59C233.483 49.022 232.713 48.238 231.173 48.238C230.613 48.238 230.137 48.364 229.745 48.616C229.367 48.868 229.101 49.162 228.947 49.498C228.919 49.652 228.905 49.785 228.905 49.897C228.905 50.009 228.905 50.121 228.905 50.233C228.905 50.569 228.954 50.905 229.052 51.241C229.15 51.563 229.29 51.857 229.472 52.123C229.668 52.375 229.913 52.585 230.207 52.753C230.501 52.907 230.851 52.984 231.257 52.984C231.915 52.984 232.447 52.76 232.853 52.312C233.273 51.864 233.483 51.29 233.483 50.59Z" fill="black"/>
<path d="M21.1266 15.695H19.2576L18.5016 18.929H16.2546L17.0106 15.695H15.4566L15.9186 13.658H17.4936L18.0186 11.432H16.5066L16.9686 9.395H18.5016L19.2366 6.371H21.4626L20.7486 9.395H22.6176L23.3526 6.371H25.5786L24.8646 9.395H26.3766L25.8516 11.432H24.3816L23.8566 13.658H25.3056L24.8016 15.695H23.3736L22.6176 18.929H20.3706L21.1266 15.695ZM19.7406 13.658H21.6096L22.1346 11.432H20.2656L19.7406 13.658ZM33.0627 13.931L33.4407 16.43H33.5457L33.9657 13.91L36.7797 5.3H39.8037L34.3437 20.105H32.2857L26.7837 5.3H30.1227L33.0627 13.931ZM41.1595 5.3H44.0365V20H41.1595V5.3ZM53.1958 16.052C53.1958 15.604 53.0278 15.24 52.6918 14.96C52.3698 14.68 51.9568 14.428 51.4528 14.204C50.9628 13.966 50.4238 13.728 49.8358 13.49C49.2618 13.238 48.7228 12.937 48.2188 12.587C47.7288 12.223 47.3158 11.775 46.9797 11.243C46.6578 10.711 46.4968 10.032 46.4968 9.206C46.4968 8.492 46.6158 7.876 46.8538 7.358C47.0918 6.826 47.4278 6.385 47.8618 6.035C48.3098 5.685 48.8348 5.426 49.4368 5.258C50.0388 5.09 50.7108 5.006 51.4528 5.006C52.3068 5.006 53.1118 5.083 53.8678 5.237C54.6238 5.377 55.2468 5.587 55.7368 5.867L54.8338 8.282C54.5258 8.086 54.0638 7.911 53.4478 7.757C52.8318 7.589 52.1668 7.505 51.4528 7.505C50.7808 7.505 50.2628 7.638 49.8988 7.904C49.5488 8.17 49.3738 8.527 49.3738 8.975C49.3738 9.395 49.5348 9.745 49.8568 10.025C50.1928 10.305 50.6058 10.564 51.0958 10.802C51.5998 11.04 52.1388 11.285 52.7128 11.537C53.3008 11.789 53.8398 12.097 54.3298 12.461C54.8338 12.811 55.2468 13.252 55.5688 13.784C55.9048 14.302 56.0728 14.953 56.0728 15.737C56.0728 16.521 55.9398 17.2 55.6738 17.774C55.4218 18.334 55.0578 18.803 54.5818 19.181C54.1198 19.559 53.5528 19.839 52.8808 20.021C52.2228 20.203 51.4948 20.294 50.6968 20.294C49.6468 20.294 48.7228 20.196 47.9248 20C47.1268 19.804 46.5388 19.608 46.1608 19.412L47.0848 16.955C47.2388 17.039 47.4348 17.13 47.6728 17.228C47.9248 17.326 48.2048 17.417 48.5128 17.501C48.8208 17.585 49.1428 17.655 49.4788 17.711C49.8288 17.767 50.1858 17.795 50.5498 17.795C51.4038 17.795 52.0548 17.655 52.5028 17.375C52.9648 17.081 53.1958 16.64 53.1958 16.052ZM58.2835 5.3H61.1605V20H58.2835V5.3ZM74.4148 7.862H70.1308V20H67.2538V7.862H62.9488V5.3H74.4148V7.862ZM82.2553 16.052C82.2553 15.604 82.0873 15.24 81.7513 14.96C81.4293 14.68 81.0163 14.428 80.5123 14.204C80.0223 13.966 79.4833 13.728 78.8953 13.49C78.3213 13.238 77.7823 12.937 77.2783 12.587C76.7883 12.223 76.3753 11.775 76.0393 11.243C75.7173 10.711 75.5563 10.032 75.5563 9.206C75.5563 8.492 75.6753 7.876 75.9133 7.358C76.1513 6.826 76.4873 6.385 76.9213 6.035C77.3693 5.685 77.8943 5.426 78.4963 5.258C79.0983 5.09 79.7703 5.006 80.5123 5.006C81.3663 5.006 82.1713 5.083 82.9273 5.237C83.6833 5.377 84.3063 5.587 84.7963 5.867L83.8933 8.282C83.5853 8.086 83.1233 7.911 82.5073 7.757C81.8913 7.589 81.2263 7.505 80.5123 7.505C79.8403 7.505 79.3223 7.638 78.9583 7.904C78.6083 8.17 78.4333 8.527 78.4333 8.975C78.4333 9.395 78.5943 9.745 78.9163 10.025C79.2523 10.305 79.6653 10.564 80.1553 10.802C80.6593 11.04 81.1983 11.285 81.7723 11.537C82.3603 11.789 82.8993 12.097 83.3893 12.461C83.8933 12.811 84.3063 13.252 84.6283 13.784C84.9643 14.302 85.1323 14.953 85.1323 15.737C85.1323 16.521 84.9993 17.2 84.7333 17.774C84.4813 18.334 84.1173 18.803 83.6413 19.181C83.1793 19.559 82.6123 19.839 81.9403 20.021C81.2823 20.203 80.5543 20.294 79.7563 20.294C78.7063 20.294 77.7823 20.196 76.9843 20C76.1863 19.804 75.5983 19.608 75.2203 19.412L76.1443 16.955C76.2983 17.039 76.4943 17.13 76.7323 17.228C76.9843 17.326 77.2643 17.417 77.5723 17.501C77.8803 17.585 78.2023 17.655 78.5383 17.711C78.8883 17.767 79.2453 17.795 79.6093 17.795C80.4633 17.795 81.1143 17.655 81.5623 17.375C82.0243 17.081 82.2553 16.64 82.2553 16.052ZM87.0491 5.3H95.7641V7.862H89.9261V11.285H95.2391V13.847H89.9261V17.438H95.8691V20H87.0491V5.3ZM98.0207 5.3C98.3147 5.258 98.6437 5.223 99.0077 5.195C99.3857 5.167 99.7707 5.146 100.163 5.132C100.555 5.118 100.933 5.111 101.297 5.111C101.675 5.097 102.011 5.09 102.305 5.09C103.607 5.09 104.72 5.272 105.644 5.636C106.568 6 107.317 6.511 107.891 7.169C108.465 7.827 108.885 8.611 109.151 9.521C109.417 10.431 109.55 11.432 109.55 12.524C109.55 13.518 109.424 14.477 109.172 15.401C108.92 16.325 108.5 17.144 107.912 17.858C107.324 18.572 106.547 19.146 105.581 19.58C104.629 20.014 103.446 20.231 102.032 20.231C101.808 20.231 101.507 20.224 101.129 20.21C100.765 20.196 100.38 20.175 99.9737 20.147C99.5817 20.133 99.2037 20.112 98.8397 20.084C98.4757 20.07 98.2027 20.049 98.0207 20.021V5.3ZM102.536 7.652C102.228 7.652 101.913 7.659 101.591 7.673C101.283 7.687 101.052 7.708 100.898 7.736V17.585C100.954 17.599 101.045 17.613 101.171 17.627C101.311 17.627 101.458 17.634 101.612 17.648C101.766 17.648 101.913 17.655 102.053 17.669C102.193 17.669 102.298 17.669 102.368 17.669C103.18 17.669 103.852 17.529 104.384 17.249C104.93 16.955 105.357 16.57 105.665 16.094C105.987 15.618 106.211 15.072 106.337 14.456C106.463 13.826 106.526 13.182 106.526 12.524C106.526 11.95 106.47 11.376 106.358 10.802C106.246 10.214 106.036 9.689 105.728 9.227C105.434 8.765 105.028 8.387 104.51 8.093C103.992 7.799 103.334 7.652 102.536 7.652ZM111.155 12.65C111.155 10.2 111.694 8.317 112.772 7.001C113.85 5.671 115.39 5.006 117.392 5.006C118.442 5.006 119.359 5.188 120.143 5.552C120.927 5.916 121.578 6.434 122.096 7.106C122.614 7.778 122.999 8.583 123.251 9.521C123.503 10.459 123.629 11.502 123.629 12.65C123.629 15.1 123.083 16.99 121.991 18.32C120.913 19.636 119.38 20.294 117.392 20.294C116.328 20.294 115.404 20.112 114.62 19.748C113.836 19.384 113.185 18.866 112.667 18.194C112.163 17.522 111.785 16.717 111.533 15.779C111.281 14.841 111.155 13.798 111.155 12.65ZM114.179 12.65C114.179 13.392 114.242 14.078 114.368 14.708C114.494 15.324 114.683 15.856 114.935 16.304C115.201 16.752 115.537 17.102 115.943 17.354C116.349 17.606 116.832 17.732 117.392 17.732C118.414 17.732 119.205 17.333 119.765 16.535C120.325 15.737 120.605 14.442 120.605 12.65C120.605 11.936 120.542 11.271 120.416 10.655C120.304 10.039 120.122 9.5 119.87 9.038C119.618 8.576 119.289 8.219 118.883 7.967C118.477 7.701 117.98 7.568 117.392 7.568C116.37 7.568 115.579 7.981 115.019 8.807C114.459 9.619 114.179 10.9 114.179 12.65ZM129.34 12.335L128.185 10.025H128.08L128.416 12.335V20H125.686V5.195H127.786L133.351 13.028L134.464 15.275H134.569L134.233 13.028V5.3H136.963V20.105H134.863L129.34 12.335ZM146.733 16.745H142.218L141.105 20H138.228L143.52 5.195H145.641L150.933 20H147.909L146.733 16.745ZM142.953 14.435H146.103L145.011 11.159L144.57 8.849H144.465L144.024 11.18L142.953 14.435Z" fill="black"/>
</svg>
